<svg width="200" height="120" viewBox="0 0 200 120" xmlns="http://www.w3.org/2000/svg">
  <!-- Camera Body - Main Rectangle -->
  <rect x="25" y="35" width="110" height="70" rx="12" ry="12" fill="#1e40af" stroke="#2563eb" stroke-width="2"/>
  
  <!-- Camera Top Section -->
  <rect x="45" y="25" width="70" height="18" rx="8" ry="8" fill="#1e40af"/>
  
  <!-- Camera Lens Outer Ring -->
  <circle cx="80" cy="70" r="22" fill="#f8fafc" stroke="#2563eb" stroke-width="2.5"/>
  
  <!-- Camera Lens Inner Ring -->
  <circle cx="80" cy="70" r="17" fill="#1e40af" stroke="#2563eb" stroke-width="1.5"/>
  
  <!-- Fork (Left side of lens) -->
  <g transform="translate(72, 62)">
    <!-- Fork Handle -->
    <rect x="0" y="8" width="2" height="10" fill="#f8fafc" rx="1"/>
    <!-- Fork Tines -->
    <rect x="-2" y="6" width="1.2" height="4" fill="#f8fafc" rx="0.5"/>
    <rect x="-0.4" y="6" width="1.2" height="4" fill="#f8fafc" rx="0.5"/>
    <rect x="1.2" y="6" width="1.2" height="4" fill="#f8fafc" rx="0.5"/>
    <rect x="2.8" y="6" width="1.2" height="4" fill="#f8fafc" rx="0.5"/>
  </g>
  
  <!-- Knife (Right side of lens) -->
  <g transform="translate(84, 62)">
    <!-- Knife Handle -->
    <rect x="0" y="8" width="2" height="10" fill="#f8fafc" rx="1"/>
    <!-- Knife Blade -->
    <polygon points="0,6 2,6 3,8 2,10 0,10" fill="#f8fafc"/>
  </g>
  
  <!-- Camera Flash -->
  <rect x="105" y="30" width="8" height="6" rx="2" ry="2" fill="#f8fafc"/>
  
  <!-- Camera Viewfinder -->
  <rect x="55" y="30" width="6" height="4" rx="1" ry="1" fill="#f8fafc"/>
  
  <!-- Text Logo -->
  <text x="25" y="110" font-family="Arial, sans-serif" font-size="22" font-weight="bold" fill="#1e40af">Snap2Health</text>
</svg> 